<?xml version="1.0" standalone="no"?><!DOCTYPE svg PUBLIC "-//W3C//DTD SVG 1.1//EN" "http://www.w3.org/Graphics/SVG/1.1/DTD/svg11.dtd"><svg height="1024" node-id="1" sillyvg="true" template-height="1024" template-width="1024" version="1.1" viewBox="0 0 1024 1024" width="1024" xmlns="http://www.w3.org/2000/svg" xmlns:xlink="http://www.w3.org/1999/xlink"><defs node-id="160"><linearGradient gradientUnits="objectBoundingBox" id="SVGID_1_" node-id="5" spreadMethod="pad" x1="70.9575" x2="991.1622" y1="512" y2="512"><stop offset="0" stop-color="#dae2ef"></stop><stop offset="1" stop-color="#f2f2f2"></stop></linearGradient><linearGradient gradientUnits="objectBoundingBox" id="SVGID_2_" node-id="23" spreadMethod="pad" x1="842.9821" x2="927.941" y1="335.1764" y2="335.1764"><stop offset="0" stop-color="#b7c5ce"></stop><stop offset="1" stop-color="#b6c4ce"></stop></linearGradient><linearGradient gradientUnits="objectBoundingBox" id="SVGID_3_" node-id="27" spreadMethod="pad" x1="725.4739" x2="944.4915" y1="368.2773" y2="368.2773"><stop offset="0" stop-color="#b7c5ce"></stop><stop offset="1" stop-color="#b6c4ce"></stop></linearGradient><linearGradient gradientUnits="objectBoundingBox" id="SVGID_4_" node-id="31" spreadMethod="pad" x1="576.5199" x2="778.987" y1="401.3782" y2="401.3782"><stop offset="0" stop-color="#b7c5ce"></stop><stop offset="1" stop-color="#b6c4ce"></stop></linearGradient><linearGradient gradientUnits="objectBoundingBox" id="SVGID_5_" node-id="35" spreadMethod="pad" x1="642.7217" x2="812.0879" y1="318.6259" y2="318.6259"><stop offset="0" stop-color="#b7c5ce"></stop><stop offset="1" stop-color="#b6c4ce"></stop></linearGradient><linearGradient gradientUnits="objectBoundingBox" id="SVGID_6_" node-id="39" spreadMethod="pad" x1="576.5199" x2="679.6843" y1="285.5251" y2="285.5251"><stop offset="0" stop-color="#b7c5ce"></stop><stop offset="1" stop-color="#b6c4ce"></stop></linearGradient><linearGradient gradientUnits="objectBoundingBox" id="SVGID_7_" node-id="43" spreadMethod="pad" x1="80.0065" x2="166.6205" y1="357.2437" y2="357.2437"><stop offset="0" stop-color="#b7c5ce"></stop><stop offset="1" stop-color="#b6c4ce"></stop></linearGradient><linearGradient gradientUnits="objectBoundingBox" id="SVGID_8_" node-id="47" spreadMethod="pad" x1="129.6579" x2="249.3727" y1="401.3782" y2="401.3782"><stop offset="0" stop-color="#b7c5ce"></stop><stop offset="1" stop-color="#b6c4ce"></stop></linearGradient><linearGradient gradientUnits="objectBoundingBox" id="SVGID_9_" node-id="51" spreadMethod="pad" x1="30.3552" x2="216.2719" y1="434.4791" y2="434.4791"><stop offset="0" stop-color="#b7c5ce"></stop><stop offset="1" stop-color="#b6c4ce"></stop></linearGradient><linearGradient gradientUnits="objectBoundingBox" id="SVGID_10_" node-id="55" spreadMethod="pad" x1="824.7766" x2="894.8401" y1="302.0755" y2="302.0755"><stop offset="0" stop-color="#b7c5ce"></stop><stop offset="1" stop-color="#b6c4ce"></stop></linearGradient><linearGradient gradientUnits="objectBoundingBox" id="SVGID_11_" node-id="59" spreadMethod="pad" x1="940.6297" x2="977.5923" y1="335.1764" y2="335.1764"><stop offset="0" stop-color="#b7c5ce"></stop><stop offset="1" stop-color="#b6c4ce"></stop></linearGradient><linearGradient gradientUnits="objectBoundingBox" id="SVGID_12_" node-id="63" spreadMethod="pad" x1="314.1953" x2="362.7433" y1="306.489" y2="306.489"><stop offset="0" stop-color="#326273"></stop><stop offset="1" stop-color="#b6c4ce"></stop></linearGradient><linearGradient gradientUnits="objectBoundingBox" id="SVGID_13_" node-id="67" spreadMethod="pad" x1="821.7423" x2="857.0499" y1="430.0656" y2="430.0656"><stop offset="0" stop-color="#326273"></stop><stop offset="1" stop-color="#b6c4ce"></stop></linearGradient><linearGradient gradientUnits="objectBoundingBox" id="SVGID_14_" node-id="71" spreadMethod="pad" x1="579.0024" x2="614.3101" y1="355.0369" y2="355.0369"><stop offset="0" stop-color="#c7d3dd"></stop><stop offset="1" stop-color="#b6c4ce"></stop></linearGradient><linearGradient gradientUnits="objectBoundingBox" id="SVGID_15_" node-id="75" spreadMethod="pad" x1="949.7324" x2="987.2468" y1="296.5587" y2="296.5587"><stop offset="0" stop-color="#c7d3dd"></stop><stop offset="1" stop-color="#b6c4ce"></stop></linearGradient><linearGradient gradientUnits="objectBoundingBox" id="SVGID_16_" node-id="79" spreadMethod="pad" x1="863.6701" x2="890.1508" y1="256.8376" y2="256.8376"><stop offset="0" stop-color="#c7d3dd"></stop><stop offset="1" stop-color="#b6c4ce"></stop></linearGradient><linearGradient gradientUnits="objectBoundingBox" id="SVGID_17_" node-id="83" spreadMethod="pad" x1="54.905" x2="116.6933" y1="485.2338" y2="485.2338"><stop offset="0" stop-color="#326273"></stop><stop offset="1" stop-color="#b6c4ce"></stop></linearGradient><linearGradient gradientUnits="objectBoundingBox" id="SVGID_18_" node-id="87" spreadMethod="pad" x1="137.9331" x2="163.8621" y1="534.8851" y2="534.8851"><stop offset="0" stop-color="#c7d3dd"></stop><stop offset="1" stop-color="#b6c4ce"></stop></linearGradient><linearGradient gradientUnits="objectBoundingBox" id="SVGID_19_" node-id="91" spreadMethod="pad" x1="255.7171" x2="279.9911" y1="310.9024" y2="310.9024"><stop offset="0" stop-color="#c7d3dd"></stop><stop offset="1" stop-color="#b6c4ce"></stop></linearGradient><linearGradient gradientUnits="objectBoundingBox" id="SVGID_22_" node-id="104" spreadMethod="pad" x1="164.6896" x2="1021.2672" y1="902.8567" y2="902.8567"><stop offset="0" stop-color="#bed6e0"></stop><stop offset="1" stop-color="#c7d3dd"></stop></linearGradient><linearGradient gradientUnits="objectBoundingBox" id="SVGID_23_" node-id="111" spreadMethod="pad" x1="554.9124" x2="566.8842" y1="721.387" y2="721.387"><stop offset="0" stop-color="#b7c5ce"></stop><stop offset="1" stop-color="#b6c4ce"></stop></linearGradient><linearGradient gradientUnits="objectBoundingBox" id="SVGID_24_" node-id="115" spreadMethod="pad" x1="539.52" x2="580.2552" y1="685.1611" y2="685.1611"><stop offset="0" stop-color="#b7c5ce"></stop><stop offset="1" stop-color="#b6c4ce"></stop></linearGradient><linearGradient gradientUnits="objectBoundingBox" id="SVGID_25_" node-id="119" spreadMethod="pad" x1="601.5553" x2="613.5271" y1="721.387" y2="721.387"><stop offset="0" stop-color="#b7c5ce"></stop><stop offset="1" stop-color="#b6c4ce"></stop></linearGradient><linearGradient gradientUnits="objectBoundingBox" id="SVGID_26_" node-id="123" spreadMethod="pad" x1="586.163" x2="626.8981" y1="685.1611" y2="685.1611"><stop offset="0" stop-color="#b7c5ce"></stop><stop offset="1" stop-color="#b6c4ce"></stop></linearGradient><linearGradient gradientUnits="objectBoundingBox" id="SVGID_27_" node-id="127" spreadMethod="pad" x1="648.1968" x2="660.1686" y1="721.387" y2="721.387"><stop offset="0" stop-color="#b7c5ce"></stop><stop offset="1" stop-color="#b6c4ce"></stop></linearGradient><linearGradient gradientUnits="objectBoundingBox" id="SVGID_28_" node-id="131" spreadMethod="pad" x1="632.8045" x2="673.5397" y1="685.1611" y2="685.1611"><stop offset="0" stop-color="#b7c5ce"></stop><stop offset="1" stop-color="#b6c4ce"></stop></linearGradient><linearGradient gradientUnits="objectBoundingBox" id="SVGID_29_" node-id="135" spreadMethod="pad" x1="694.8398" x2="706.8116" y1="721.387" y2="721.387"><stop offset="0" stop-color="#b7c5ce"></stop><stop offset="1" stop-color="#b6c4ce"></stop></linearGradient><linearGradient gradientUnits="objectBoundingBox" id="SVGID_30_" node-id="139" spreadMethod="pad" x1="679.4474" x2="720.1826" y1="685.1611" y2="685.1611"><stop offset="0" stop-color="#b7c5ce"></stop><stop offset="1" stop-color="#b6c4ce"></stop></linearGradient><linearGradient gradientUnits="objectBoundingBox" id="SVGID_31_" node-id="143" spreadMethod="pad" x1="741.4827" x2="753.4545" y1="721.387" y2="721.387"><stop offset="0" stop-color="#b7c5ce"></stop><stop offset="1" stop-color="#b6c4ce"></stop></linearGradient><linearGradient gradientUnits="objectBoundingBox" id="SVGID_32_" node-id="147" spreadMethod="pad" x1="726.0904" x2="766.8256" y1="685.1611" y2="685.1611"><stop offset="0" stop-color="#b7c5ce"></stop><stop offset="1" stop-color="#b6c4ce"></stop></linearGradient><linearGradient gradientUnits="objectBoundingBox" id="SVGID_33_" node-id="151" spreadMethod="pad" x1="788.1243" x2="800.0961" y1="721.387" y2="721.387"><stop offset="0" stop-color="#b7c5ce"></stop><stop offset="1" stop-color="#b6c4ce"></stop></linearGradient><linearGradient gradientUnits="objectBoundingBox" id="SVGID_34_" node-id="155" spreadMethod="pad" x1="772.7319" x2="813.4671" y1="685.1611" y2="685.1611"><stop offset="0" stop-color="#b7c5ce"></stop><stop offset="1" stop-color="#b6c4ce"></stop></linearGradient><clipPath id="SVGID_21_" node-id="102"><path d="M 991.20 512.00 L 991.00 526.70 L 990.30 541.20 L 989.10 555.70 L 987.50 570.10 L 985.50 584.40 L 983.00 598.70 L 980.00 612.80 L 976.70 626.80 L 972.90 640.60 L 968.60 654.40 L 963.90 668.00 L 958.90 681.40 L 953.40 694.70 L 947.50 707.80 L 941.20 720.70 L 934.40 733.40 L 927.30 745.90 L 919.80 758.20 L 911.90 770.20 L 903.60 782.10 L 894.90 793.70 L 885.90 805.00 L 876.50 816.00 L 866.60 826.80 L 856.40 837.30 L 845.90 847.50 L 835.10 857.40 L 824.10 866.80 L 812.80 875.80 L 801.20 884.50 L 789.30 892.80 L 777.30 900.70 L 765.00 908.20 L 752.50 915.30 L 739.80 922.10 L 726.90 928.40 L 713.80 934.30 L 700.50 939.80 L 687.10 944.80 L 673.50 949.50 L 659.70 953.80 L 645.90 957.60 L 631.90 960.90 L 617.80 963.90 L 603.50 966.40 L 589.20 968.40 L 574.80 970.00 L 560.30 971.20 L 545.80 971.90 L 531.10 972.10 L 516.40 971.90 L 501.90 971.20 L 487.40 970.00 L 473.00 968.40 L 458.70 966.40 L 444.40 963.90 L 430.30 960.90 L 416.30 957.60 L 402.50 953.80 L 388.70 949.50 L 375.10 944.80 L 361.70 939.80 L 348.40 934.30 L 335.30 928.40 L 322.40 922.10 L 309.70 915.30 L 297.20 908.20 L 284.90 900.70 L 272.90 892.80 L 261.00 884.50 L 249.40 875.80 L 238.10 866.80 L 227.10 857.40 L 216.30 847.50 L 205.80 837.30 L 195.60 826.80 L 185.70 816.00 L 176.30 805.00 L 167.30 793.70 L 158.60 782.10 L 150.30 770.20 L 142.40 758.20 L 134.90 745.90 L 127.80 733.40 L 121.00 720.70 L 114.70 707.80 L 108.80 694.70 L 103.30 681.40 L 98.30 668.00 L 93.60 654.40 L 89.30 640.60 L 85.50 626.80 L 82.20 612.80 L 79.20 598.70 L 76.70 584.40 L 74.70 570.10 L 73.10 555.70 L 71.90 541.20 L 71.20 526.70 L 71.00 512.00 L 71.20 497.30 L 71.90 482.80 L 73.10 468.30 L 74.70 453.90 L 76.70 439.60 L 79.20 425.30 L 82.20 411.20 L 85.50 397.20 L 89.30 383.40 L 93.60 369.60 L 98.30 356.00 L 103.30 342.60 L 108.80 329.30 L 114.70 316.20 L 121.00 303.30 L 127.80 290.60 L 134.90 278.10 L 142.40 265.80 L 150.30 253.80 L 158.60 241.90 L 167.30 230.30 L 176.30 219.00 L 185.70 208.00 L 195.60 197.20 L 205.80 186.70 L 216.30 176.50 L 227.10 166.60 L 238.10 157.20 L 249.40 148.20 L 261.00 139.50 L 272.90 131.20 L 284.90 123.30 L 297.20 115.80 L 309.70 108.70 L 322.40 101.90 L 335.30 95.60 L 348.40 89.70 L 361.70 84.20 L 375.10 79.20 L 388.70 74.50 L 402.50 70.20 L 416.30 66.40 L 430.30 63.10 L 444.40 60.10 L 458.70 57.60 L 473.00 55.60 L 487.40 54.00 L 501.90 52.80 L 516.40 52.10 L 531.10 51.90 L 545.80 52.10 L 560.30 52.80 L 574.80 54.00 L 589.20 55.60 L 603.50 57.60 L 617.80 60.10 L 631.90 63.10 L 645.90 66.40 L 659.70 70.20 L 673.50 74.50 L 687.10 79.20 L 700.50 84.20 L 713.80 89.70 L 726.90 95.60 L 739.80 101.90 L 752.50 108.70 L 765.00 115.80 L 777.30 123.30 L 789.30 131.20 L 801.20 139.50 L 812.80 148.20 L 824.10 157.20 L 835.10 166.60 L 845.90 176.50 L 856.40 186.70 L 866.60 197.20 L 876.50 208.00 L 885.90 219.00 L 894.90 230.30 L 903.60 241.90 L 911.90 253.80 L 919.80 265.80 L 927.30 278.10 L 934.40 290.60 L 941.20 303.30 L 947.50 316.20 L 953.40 329.30 L 958.90 342.60 L 963.90 356.00 L 968.60 369.60 L 972.90 383.40 L 976.70 397.20 L 980.00 411.20 L 983.00 425.30 L 985.50 439.60 L 987.50 453.90 L 989.10 468.30 L 990.30 482.80 L 991.00 497.30 L 991.20 512.00 Z" fill="#000000" fill-rule="nonzero" node-id="355" stroke="none" target-height="920.19995" target-width="920.2" target-x="71" target-y="51.9"></path></clipPath></defs><path d="M 991.20 512.00 L 991.00 526.70 L 990.30 541.20 L 989.10 555.70 L 987.50 570.10 L 985.50 584.40 L 983.00 598.70 L 980.00 612.80 L 976.70 626.80 L 972.90 640.60 L 968.60 654.40 L 963.90 668.00 L 958.90 681.40 L 953.40 694.70 L 947.50 707.80 L 941.20 720.70 L 934.40 733.40 L 927.30 745.90 L 919.80 758.20 L 911.90 770.20 L 903.60 782.10 L 894.90 793.70 L 885.90 805.00 L 876.50 816.00 L 866.60 826.80 L 856.40 837.30 L 845.90 847.50 L 835.10 857.40 L 824.10 866.80 L 812.80 875.80 L 801.20 884.50 L 789.30 892.80 L 777.30 900.70 L 765.00 908.20 L 752.50 915.30 L 739.80 922.10 L 726.90 928.40 L 713.80 934.30 L 700.50 939.80 L 687.10 944.80 L 673.50 949.50 L 659.70 953.80 L 645.90 957.60 L 631.90 960.90 L 617.80 963.90 L 603.50 966.40 L 589.20 968.40 L 574.80 970.00 L 560.30 971.20 L 545.80 971.90 L 531.10 972.10 L 516.40 971.90 L 501.90 971.20 L 487.40 970.00 L 473.00 968.40 L 458.70 966.40 L 444.40 963.90 L 430.30 960.90 L 416.30 957.60 L 402.50 953.80 L 388.70 949.50 L 375.10 944.80 L 361.70 939.80 L 348.40 934.30 L 335.30 928.40 L 322.40 922.10 L 309.70 915.30 L 297.20 908.20 L 284.90 900.70 L 272.90 892.80 L 261.00 884.50 L 249.40 875.80 L 238.10 866.80 L 227.10 857.40 L 216.30 847.50 L 205.80 837.30 L 195.60 826.80 L 185.70 816.00 L 176.30 805.00 L 167.30 793.70 L 158.60 782.10 L 150.30 770.20 L 142.40 758.20 L 134.90 745.90 L 127.80 733.40 L 121.00 720.70 L 114.70 707.80 L 108.80 694.70 L 103.30 681.40 L 98.30 668.00 L 93.60 654.40 L 89.30 640.60 L 85.50 626.80 L 82.20 612.80 L 79.20 598.70 L 76.70 584.40 L 74.70 570.10 L 73.10 555.70 L 71.90 541.20 L 71.20 526.70 L 71.00 512.00 L 71.20 497.30 L 71.90 482.80 L 73.10 468.30 L 74.70 453.90 L 76.70 439.60 L 79.20 425.30 L 82.20 411.20 L 85.50 397.20 L 89.30 383.40 L 93.60 369.60 L 98.30 356.00 L 103.30 342.60 L 108.80 329.30 L 114.70 316.20 L 121.00 303.30 L 127.80 290.60 L 134.90 278.10 L 142.40 265.80 L 150.30 253.80 L 158.60 241.90 L 167.30 230.30 L 176.30 219.00 L 185.70 208.00 L 195.60 197.20 L 205.80 186.70 L 216.30 176.50 L 227.10 166.60 L 238.10 157.20 L 249.40 148.20 L 261.00 139.50 L 272.90 131.20 L 284.90 123.30 L 297.20 115.80 L 309.70 108.70 L 322.40 101.90 L 335.30 95.60 L 348.40 89.70 L 361.70 84.20 L 375.10 79.20 L 388.70 74.50 L 402.50 70.20 L 416.30 66.40 L 430.30 63.10 L 444.40 60.10 L 458.70 57.60 L 473.00 55.60 L 487.40 54.00 L 501.90 52.80 L 516.40 52.10 L 531.10 51.90 L 545.80 52.10 L 560.30 52.80 L 574.80 54.00 L 589.20 55.60 L 603.50 57.60 L 617.80 60.10 L 631.90 63.10 L 645.90 66.40 L 659.70 70.20 L 673.50 74.50 L 687.10 79.20 L 700.50 84.20 L 713.80 89.70 L 726.90 95.60 L 739.80 101.90 L 752.50 108.70 L 765.00 115.80 L 777.30 123.30 L 789.30 131.20 L 801.20 139.50 L 812.80 148.20 L 824.10 157.20 L 835.10 166.60 L 845.90 176.50 L 856.40 186.70 L 866.60 197.20 L 876.50 208.00 L 885.90 219.00 L 894.90 230.30 L 903.60 241.90 L 911.90 253.80 L 919.80 265.80 L 927.30 278.10 L 934.40 290.60 L 941.20 303.30 L 947.50 316.20 L 953.40 329.30 L 958.90 342.60 L 963.90 356.00 L 968.60 369.60 L 972.90 383.40 L 976.70 397.20 L 980.00 411.20 L 983.00 425.30 L 985.50 439.60 L 987.50 453.90 L 989.10 468.30 L 990.30 482.80 L 991.00 497.30 L 991.20 512.00 Z" fill="url(#SVGID_1_)" fill-rule="nonzero" node-id="361" stroke="none" target-height="920.19995" target-width="920.2" target-x="71" target-y="51.9"></path><g node-id="477"><path d="M 668.40 514.30 L 649.30 514.30 L 646.80 513.60 L 645.10 511.90 L 644.40 509.40 L 644.40 490.30 L 645.10 487.80 L 646.80 486.10 L 648.00 485.60 L 668.40 485.40 L 670.90 486.10 L 672.60 487.80 L 673.30 490.30 L 673.10 510.70 L 672.60 511.90 L 670.90 513.60 L 668.40 514.30 Z" fill="#ffffff" fill-rule="nonzero" group-id="1" node-id="365" stroke="none" target-height="28.899994" target-width="28.899963" target-x="644.4" target-y="485.4"></path><path d="M 711.00 514.30 L 692.00 514.30 L 689.50 513.60 L 687.80 511.90 L 687.10 509.40 L 687.30 489.00 L 687.80 487.80 L 689.50 486.10 L 692.00 485.40 L 711.00 485.40 L 713.50 486.10 L 715.20 487.80 L 715.90 490.30 L 715.80 510.70 L 715.30 511.90 L 713.50 513.60 L 711.00 514.30 Z" fill="#ffffff" fill-rule="nonzero" group-id="1" node-id="367" stroke="none" target-height="28.899994" target-width="28.800049" target-x="687.1" target-y="485.4"></path><path d="M 753.70 514.30 L 734.60 514.30 L 732.10 513.60 L 730.40 511.90 L 729.70 509.40 L 729.70 490.30 L 730.40 487.80 L 732.10 486.10 L 733.30 485.60 L 753.70 485.40 L 756.20 486.10 L 757.90 487.80 L 758.60 490.30 L 758.40 510.70 L 757.90 511.90 L 756.20 513.60 L 753.70 514.30 Z" fill="#ffffff" fill-rule="nonzero" group-id="1" node-id="369" stroke="none" target-height="28.899994" target-width="28.899963" target-x="729.7" target-y="485.4"></path><path d="M 796.30 514.30 L 777.20 514.30 L 774.70 513.60 L 773.00 511.90 L 772.30 509.40 L 772.30 490.30 L 773.00 487.80 L 774.70 486.10 L 775.90 485.60 L 796.30 485.40 L 798.80 486.10 L 800.50 487.80 L 801.20 490.30 L 801.00 510.70 L 800.50 511.90 L 798.80 513.60 L 796.30 514.30 Z" fill="#ffffff" fill-rule="nonzero" group-id="1" node-id="371" stroke="none" target-height="28.899994" target-width="28.900024" target-x="772.3" target-y="485.4"></path><path d="M 838.90 514.30 L 819.80 514.30 L 817.30 513.60 L 815.60 511.90 L 814.90 509.40 L 815.10 489.00 L 815.60 487.80 L 817.30 486.10 L 819.80 485.40 L 838.90 485.40 L 841.40 486.10 L 843.10 487.80 L 843.80 490.30 L 843.70 510.70 L 843.20 511.90 L 841.40 513.60 L 838.90 514.30 Z" fill="#ffffff" fill-rule="nonzero" group-id="1" node-id="373" stroke="none" target-height="28.899994" target-width="28.899963" target-x="814.9" target-y="485.4"></path><path d="M 881.60 514.30 L 862.50 514.30 L 860.00 513.60 L 858.30 511.90 L 857.60 509.40 L 857.60 490.30 L 858.30 487.80 L 860.00 486.10 L 861.20 485.60 L 881.60 485.40 L 884.10 486.10 L 885.80 487.80 L 886.50 490.30 L 886.30 510.70 L 885.80 511.90 L 884.10 513.60 L 881.60 514.30 Z" fill="#ffffff" fill-rule="nonzero" group-id="1" node-id="375" stroke="none" target-height="28.899994" target-width="28.900024" target-x="857.6" target-y="485.4"></path></g><g node-id="478"><path d="M 230.10 748.80 L 211.00 748.80 L 208.50 748.10 L 206.80 746.40 L 206.10 743.90 L 206.10 724.80 L 206.80 722.30 L 208.50 720.60 L 209.70 720.10 L 230.10 719.90 L 232.60 720.60 L 234.30 722.30 L 235.00 724.80 L 234.80 745.20 L 234.30 746.40 L 232.60 748.10 L 230.10 748.80 Z" fill="#ffffff" fill-rule="nonzero" group-id="2" node-id="380" stroke="none" target-height="28.899963" target-width="28.899994" target-x="206.1" target-y="719.9"></path><path d="M 272.70 748.80 L 253.60 748.80 L 251.10 748.10 L 249.40 746.40 L 248.70 743.90 L 248.90 723.50 L 249.40 722.30 L 251.10 720.60 L 253.60 719.90 L 272.70 719.90 L 275.20 720.60 L 276.90 722.30 L 277.60 724.80 L 277.50 745.20 L 277.00 746.40 L 275.20 748.10 L 272.70 748.80 Z" fill="#ffffff" fill-rule="nonzero" group-id="2" node-id="382" stroke="none" target-height="28.899963" target-width="28.90001" target-x="248.7" target-y="719.9"></path><path d="M 315.40 748.80 L 296.30 748.80 L 293.80 748.10 L 292.10 746.40 L 291.40 743.90 L 291.40 724.80 L 292.10 722.30 L 293.80 720.60 L 295.00 720.10 L 315.40 719.90 L 317.90 720.60 L 319.60 722.30 L 320.30 724.80 L 320.10 745.20 L 319.60 746.40 L 317.90 748.10 L 315.40 748.80 Z" fill="#ffffff" fill-rule="nonzero" group-id="2" node-id="384" stroke="none" target-height="28.899963" target-width="28.899994" target-x="291.4" target-y="719.9"></path><path d="M 358.00 748.80 L 338.90 748.80 L 336.40 748.10 L 334.70 746.40 L 334.00 743.90 L 334.00 724.80 L 334.70 722.30 L 336.40 720.60 L 337.60 720.10 L 358.00 719.90 L 360.50 720.60 L 362.20 722.30 L 362.90 724.80 L 362.70 745.20 L 362.20 746.40 L 360.50 748.10 L 358.00 748.80 Z" fill="#ffffff" fill-rule="nonzero" group-id="2" node-id="386" stroke="none" target-height="28.899963" target-width="28.899994" target-x="334" target-y="719.9"></path><path d="M 400.60 748.80 L 381.50 748.80 L 379.00 748.10 L 377.30 746.40 L 376.60 743.90 L 376.80 723.50 L 377.30 722.30 L 379.00 720.60 L 381.50 719.90 L 400.60 719.90 L 403.10 720.60 L 404.80 722.30 L 405.50 724.80 L 405.40 745.20 L 404.90 746.40 L 403.10 748.10 L 400.60 748.80 Z" fill="#ffffff" fill-rule="nonzero" group-id="2" node-id="388" stroke="none" target-height="28.899963" target-width="28.899994" target-x="376.6" target-y="719.9"></path><path d="M 443.30 748.80 L 424.20 748.80 L 421.70 748.10 L 420.00 746.40 L 419.30 743.90 L 419.30 724.80 L 420.00 722.30 L 421.70 720.60 L 422.90 720.10 L 443.30 719.90 L 445.80 720.60 L 447.50 722.30 L 448.20 724.80 L 448.00 745.20 L 447.50 746.40 L 445.80 748.10 L 443.30 748.80 Z" fill="#ffffff" fill-rule="nonzero" group-id="2" node-id="390" stroke="none" target-height="28.899963" target-width="28.900024" target-x="419.3" target-y="719.9"></path></g><path d="M 845.50 335.20 L 925.50 335.20" fill="none" node-id="393" stroke="url(#SVGID_2_)" stroke-linecap="round" stroke-width="4.9651" target-height="0" target-width="80" target-x="845.5" target-y="335.2"></path><path d="M 728.00 368.30 L 942.00 368.30" fill="none" node-id="395" stroke="url(#SVGID_3_)" stroke-linecap="round" stroke-width="4.9651" target-height="0" target-width="214" target-x="728" target-y="368.3"></path><path d="M 579.00 401.40 L 776.50 401.40" fill="none" node-id="397" stroke="url(#SVGID_4_)" stroke-linecap="round" stroke-width="4.9651" target-height="0" target-width="197.5" target-x="579" target-y="401.4"></path><path d="M 645.20 318.60 L 809.60 318.60" fill="none" node-id="399" stroke="url(#SVGID_5_)" stroke-linecap="round" stroke-width="4.9651" target-height="0" target-width="164.39996" target-x="645.2" target-y="318.6"></path><path d="M 579.00 285.50 L 677.20 285.50" fill="none" node-id="401" stroke="url(#SVGID_6_)" stroke-linecap="round" stroke-width="4.9651" target-height="0" target-width="98.20001" target-x="579" target-y="285.5"></path><path d="M 82.50 357.20 L 164.10 357.20" fill="none" node-id="403" stroke="url(#SVGID_7_)" stroke-linecap="round" stroke-width="4.9651" target-height="0" target-width="81.600006" target-x="82.5" target-y="357.2"></path><path d="M 132.10 401.40 L 246.90 401.40" fill="none" node-id="405" stroke="url(#SVGID_8_)" stroke-linecap="round" stroke-width="4.9651" target-height="0" target-width="114.79999" target-x="132.1" target-y="401.4"></path><path d="M 32.80 434.50 L 213.80 434.50" fill="none" node-id="407" stroke="url(#SVGID_9_)" stroke-linecap="round" stroke-width="4.9651" target-height="0" target-width="181" target-x="32.8" target-y="434.5"></path><path d="M 827.30 302.10 L 892.40 302.10" fill="none" node-id="409" stroke="url(#SVGID_10_)" stroke-linecap="round" stroke-width="4.9651" target-height="0" target-width="65.10004" target-x="827.3" target-y="302.1"></path><path d="M 943.10 335.20 L 975.10 335.20" fill="none" node-id="411" stroke="url(#SVGID_11_)" stroke-linecap="round" stroke-width="4.9651" target-height="0" target-width="32" target-x="943.1" target-y="335.2"></path><path d="M 362.80 306.50 L 362.60 309.80 L 361.90 313.00 L 360.90 316.00 L 359.50 318.80 L 355.70 323.70 L 350.80 327.50 L 348.00 328.90 L 345.00 329.90 L 341.80 330.60 L 338.50 330.80 L 335.20 330.60 L 332.00 329.90 L 329.00 328.90 L 323.70 325.70 L 319.30 321.30 L 317.50 318.80 L 316.10 316.00 L 315.10 313.00 L 314.40 309.80 L 314.20 306.50 L 314.40 303.20 L 315.10 300.00 L 316.10 297.00 L 319.30 291.70 L 323.70 287.30 L 329.00 284.10 L 332.00 283.10 L 335.20 282.40 L 338.50 282.20 L 341.80 282.40 L 345.00 283.10 L 348.00 284.10 L 350.80 285.50 L 355.70 289.30 L 359.50 294.20 L 360.90 297.00 L 361.90 300.00 L 362.60 303.20 L 362.80 306.50 Z" fill="url(#SVGID_12_)" fill-rule="nonzero" node-id="413" stroke="none" target-height="48.599976" target-width="48.599976" target-x="314.2" target-y="282.2"></path><path d="M 857.10 430.10 L 856.90 432.40 L 855.80 436.90 L 853.50 440.80 L 851.90 442.60 L 850.10 444.20 L 846.20 446.50 L 841.70 447.60 L 839.40 447.80 L 837.10 447.60 L 832.60 446.50 L 828.70 444.20 L 826.90 442.60 L 824.10 438.90 L 822.30 434.70 L 821.90 432.40 L 821.70 430.10 L 822.30 425.50 L 824.10 421.30 L 826.90 417.60 L 828.70 416.00 L 832.60 413.70 L 837.10 412.60 L 839.40 412.40 L 841.70 412.60 L 846.20 413.70 L 850.10 416.00 L 851.90 417.60 L 853.50 419.40 L 855.80 423.30 L 856.90 427.80 L 857.10 430.10 Z" fill="url(#SVGID_13_)" fill-rule="nonzero" node-id="415" stroke="none" target-height="35.399994" target-width="35.399963" target-x="821.7" target-y="412.4"></path><path d="M 614.40 355.00 L 614.20 357.30 L 613.10 361.80 L 610.80 365.70 L 609.20 367.50 L 607.40 369.10 L 603.50 371.40 L 599.00 372.50 L 596.70 372.70 L 594.40 372.50 L 589.90 371.40 L 586.00 369.10 L 584.20 367.50 L 581.40 363.80 L 579.60 359.60 L 579.20 357.30 L 579.00 355.00 L 579.60 350.40 L 581.40 346.20 L 584.20 342.50 L 586.00 340.90 L 589.90 338.60 L 594.40 337.50 L 596.70 337.30 L 599.00 337.50 L 603.50 338.60 L 607.40 340.90 L 609.20 342.50 L 610.80 344.30 L 613.10 348.20 L 614.20 352.70 L 614.40 355.00 Z" fill="url(#SVGID_14_)" fill-rule="nonzero" node-id="417" stroke="none" target-height="35.400024" target-width="35.400024" target-x="579" target-y="337.3"></path><path d="M 987.30 296.60 L 987.00 300.00 L 986.10 303.20 L 984.70 306.10 L 982.90 308.70 L 980.60 311.00 L 978.00 312.80 L 975.10 314.20 L 971.90 315.10 L 968.50 315.40 L 965.10 315.10 L 961.90 314.20 L 959.00 312.80 L 956.40 311.00 L 954.10 308.70 L 952.30 306.10 L 950.90 303.20 L 950.00 300.00 L 949.70 296.60 L 950.00 293.20 L 950.90 290.00 L 952.30 287.10 L 954.10 284.50 L 956.40 282.20 L 959.00 280.40 L 961.90 279.00 L 965.10 278.10 L 968.50 277.80 L 971.90 278.10 L 975.10 279.00 L 978.00 280.40 L 980.60 282.20 L 982.90 284.50 L 984.70 287.10 L 986.10 290.00 L 987.00 293.20 L 987.30 296.60 Z" fill="url(#SVGID_15_)" fill-rule="nonzero" node-id="419" stroke="none" target-height="37.600006" target-width="37.599976" target-x="949.7" target-y="277.8"></path><path d="M 890.10 256.80 L 889.80 259.40 L 889.10 261.90 L 887.90 264.10 L 886.20 266.10 L 884.20 267.80 L 882.00 269.00 L 879.50 269.70 L 876.90 270.00 L 874.30 269.70 L 871.80 269.00 L 869.60 267.80 L 867.60 266.10 L 865.90 264.10 L 864.70 261.90 L 864.00 259.40 L 863.70 256.80 L 864.00 254.20 L 864.70 251.70 L 865.90 249.50 L 867.60 247.50 L 869.60 245.80 L 871.80 244.60 L 874.30 243.90 L 876.90 243.60 L 879.50 243.90 L 882.00 244.60 L 884.20 245.80 L 886.20 247.50 L 887.90 249.50 L 889.10 251.70 L 889.80 254.20 L 890.10 256.80 Z" fill="url(#SVGID_16_)" fill-rule="nonzero" node-id="421" stroke="none" target-height="26.399994" target-width="26.399963" target-x="863.7" target-y="243.6"></path><path d="M 116.70 485.20 L 116.40 489.30 L 115.60 493.20 L 114.30 497.00 L 112.60 500.60 L 110.30 504.00 L 107.60 507.00 L 104.60 509.70 L 101.20 512.00 L 97.60 513.70 L 93.80 515.00 L 89.90 515.80 L 85.80 516.10 L 81.70 515.80 L 77.80 515.00 L 74.00 513.70 L 70.40 512.00 L 67.00 509.70 L 64.00 507.00 L 61.30 504.00 L 59.00 500.60 L 57.30 497.00 L 56.00 493.20 L 55.20 489.30 L 54.90 485.20 L 55.20 481.00 L 56.00 477.00 L 57.30 473.20 L 59.10 469.60 L 61.30 466.30 L 64.00 463.40 L 66.90 460.70 L 70.20 458.50 L 73.80 456.70 L 77.60 455.40 L 81.60 454.60 L 85.80 454.30 L 90.00 454.60 L 94.00 455.40 L 97.80 456.70 L 101.40 458.50 L 104.70 460.70 L 107.60 463.40 L 110.30 466.30 L 112.50 469.60 L 114.30 473.20 L 115.60 477.00 L 116.40 481.00 L 116.70 485.20 Z" fill="url(#SVGID_17_)" fill-rule="nonzero" node-id="423" stroke="none" target-height="61.799988" target-width="61.799995" target-x="54.9" target-y="454.3"></path><path d="M 163.90 534.90 L 163.70 537.30 L 163.10 539.40 L 162.10 541.50 L 159.30 544.80 L 155.40 547.10 L 153.30 547.70 L 150.90 547.90 L 148.50 547.70 L 146.40 547.10 L 142.50 544.80 L 139.70 541.50 L 138.70 539.40 L 138.10 537.30 L 137.90 534.90 L 138.10 532.50 L 138.70 530.40 L 141.00 526.50 L 144.30 523.70 L 146.40 522.70 L 150.90 521.90 L 155.40 522.70 L 157.50 523.70 L 160.80 526.50 L 163.10 530.40 L 163.70 532.50 L 163.90 534.90 Z" fill="url(#SVGID_18_)" fill-rule="nonzero" node-id="425" stroke="none" target-height="26" target-width="26" target-x="137.9" target-y="521.9"></path><path d="M 280.00 310.90 L 279.80 313.30 L 279.10 315.50 L 278.00 317.60 L 276.50 319.50 L 274.60 321.00 L 272.50 322.10 L 270.30 322.80 L 267.90 323.00 L 265.50 322.80 L 263.30 322.10 L 261.20 321.00 L 259.30 319.50 L 257.80 317.60 L 256.70 315.50 L 256.00 313.30 L 255.80 310.90 L 256.00 308.50 L 256.70 306.30 L 257.80 304.20 L 259.30 302.30 L 261.20 300.80 L 263.30 299.70 L 265.50 299.00 L 267.90 298.80 L 270.30 299.00 L 272.50 299.70 L 274.60 300.80 L 276.50 302.30 L 278.00 304.20 L 279.10 306.30 L 279.80 308.50 L 280.00 310.90 Z" fill="url(#SVGID_19_)" fill-rule="nonzero" node-id="427" stroke="none" target-height="24.200012" target-width="24.199997" target-x="255.8" target-y="298.8"></path><g node-id="479"><path d="M 226.40 355.30 L 589.00 355.30 L 592.20 355.60 L 595.10 356.40 L 597.80 357.70 L 600.30 359.40 L 602.30 361.50 L 604.10 364.00 L 605.40 366.70 L 606.20 369.60 L 606.50 372.80 L 606.50 620.80 L 606.20 624.00 L 605.40 626.90 L 604.10 629.60 L 602.40 632.10 L 600.30 634.10 L 597.80 635.90 L 595.10 637.20 L 592.20 638.00 L 589.00 638.30 L 297.20 638.30 L 240.40 699.80 L 239.30 700.70 L 237.10 701.30 L 234.80 700.70 L 233.90 700.10 L 232.60 698.10 L 232.40 696.70 L 232.40 638.30 L 223.20 638.00 L 220.30 637.20 L 217.60 635.90 L 215.10 634.20 L 213.10 632.10 L 211.30 629.60 L 210.00 626.90 L 209.20 624.00 L 208.90 620.80 L 208.90 372.80 L 209.20 369.60 L 210.00 366.70 L 211.30 364.00 L 213.10 361.50 L 215.20 359.40 L 217.60 357.70 L 220.30 356.40 L 223.20 355.60 L 226.40 355.30 Z" fill="#ffffff" fill-rule="nonzero" group-id="3" node-id="431" stroke="none" target-height="346" target-width="397.6" target-x="208.9" target-y="355.3"></path><g node-id="482"><path d="M 463.40 404.80 L 466.00 405.00 L 468.30 405.70 L 470.40 406.90 L 472.30 408.50 L 473.90 410.40 L 475.00 412.50 L 475.70 414.90 L 475.90 417.50 L 475.90 555.20 L 475.70 557.80 L 475.00 560.10 L 473.90 562.30 L 472.30 564.30 L 470.40 566.00 L 468.30 567.10 L 466.00 567.80 L 463.40 568.10 L 436.50 568.10 L 441.80 579.30 L 410.60 579.30 L 405.30 568.10 L 348.20 568.10 L 345.70 567.80 L 343.30 567.10 L 341.20 566.00 L 339.20 564.30 L 337.60 562.30 L 336.50 560.20 L 335.80 557.80 L 335.50 555.20 L 335.50 417.50 L 335.70 414.90 L 336.40 412.60 L 337.60 410.50 L 339.20 408.50 L 341.10 406.90 L 343.20 405.80 L 345.60 405.10 L 348.20 404.80 L 463.40 404.80 Z M 444.00 421.00 L 443.90 419.70 L 442.70 417.60 L 440.60 416.40 L 439.30 416.30 L 371.80 416.30 L 369.60 416.90 L 367.90 418.60 L 367.30 421.00 L 367.30 552.40 L 367.80 554.40 L 368.60 555.40 L 370.60 556.60 L 371.80 556.70 L 400.00 556.70 L 395.70 547.70 L 426.90 547.70 L 431.20 556.70 L 440.70 556.60 L 441.80 556.10 L 443.60 554.40 L 444.10 552.40 L 444.10 421.00 Z" fill="#326273" fill-rule="nonzero" group-id="3,6" node-id="435" stroke="none" target-height="174.5" target-width="140.4" target-x="335.5" target-y="404.8"></path></g></g><g node-id="480"><g clip-path="url(#SVGID_21_)" group-id="4" node-id="441"><path d="M 164.70 808.00 L 172.10 802.70 L 185.30 794.90 L 200.50 787.50 L 215.40 781.90 L 223.40 779.40 L 231.90 777.20 L 241.20 775.30 L 250.50 773.90 L 260.40 773.00 L 270.80 772.70 L 278.60 772.90 L 286.70 773.50 L 295.00 774.50 L 303.70 776.00 L 312.20 777.90 L 320.90 780.30 L 329.90 783.40 L 339.20 787.10 L 348.10 791.20 L 357.30 796.00 L 366.70 801.60 L 385.30 813.80 L 393.70 818.60 L 401.60 822.60 L 409.10 825.70 L 417.00 828.50 L 424.70 830.60 L 432.00 832.00 L 439.10 832.90 L 446.40 833.30 L 453.50 833.20 L 460.50 832.70 L 467.50 831.70 L 476.70 829.90 L 485.90 827.50 L 495.10 824.50 L 508.80 819.40 L 562.00 797.20 L 583.20 789.70 L 594.10 786.40 L 605.50 783.60 L 617.50 781.30 L 626.50 780.00 L 635.90 779.00 L 645.60 778.50 L 655.90 778.40 L 665.90 778.70 L 676.40 779.60 L 687.50 781.10 L 699.20 783.20 L 724.20 788.50 L 816.50 809.50 L 831.00 812.50 L 844.00 814.90 L 856.80 816.80 L 868.80 817.90 L 876.70 818.30 L 892.50 818.20 L 908.60 816.60 L 917.10 815.20 L 934.50 811.30 L 944.20 808.70 L 958.80 804.00 L 982.90 795.70 L 989.10 794.30 L 994.30 793.60 L 998.70 793.50 L 1002.40 794.00 L 1005.70 794.80 L 1008.50 795.90 L 1010.90 797.40 L 1013.10 799.20 L 1015.40 801.90 L 1017.30 805.00 L 1018.80 808.70 L 1020.00 813.00 L 1020.70 817.30 L 1021.20 827.30 L 1020.90 833.00 L 1018.90 848.40 L 1017.20 857.00 L 1014.10 869.80 L 1010.30 883.00 L 1006.00 896.10 L 996.80 921.30 L 983.90 952.10 L 975.60 970.20 L 565.10 1033.10 L 232.40 958.60 L 164.70 808.00 Z" fill="url(#SVGID_22_)" fill-rule="nonzero" group-id="4,7" node-id="443" stroke="none" target-height="260.39996" target-width="856.5" target-x="164.7" target-y="772.7"></path></g></g><g node-id="481"><path d="M 836.70 559.50 L 509.50 559.50 L 506.60 559.80 L 504.00 560.50 L 501.50 561.70 L 499.30 563.20 L 497.40 565.10 L 495.90 567.30 L 494.70 569.80 L 494.00 572.40 L 493.70 575.30 L 493.70 799.10 L 494.00 802.00 L 494.70 804.60 L 495.90 807.10 L 497.40 809.30 L 499.30 811.20 L 501.50 812.70 L 504.00 813.90 L 506.60 814.60 L 509.50 814.90 L 772.90 814.90 L 824.10 870.40 L 825.10 871.20 L 827.10 871.80 L 828.70 871.50 L 830.00 870.60 L 831.10 868.80 L 831.30 867.60 L 831.30 814.90 L 839.60 814.60 L 842.20 813.90 L 844.70 812.70 L 846.90 811.20 L 848.80 809.30 L 850.30 807.10 L 851.50 804.60 L 852.20 802.00 L 852.50 799.10 L 852.50 575.30 L 852.20 572.40 L 851.50 569.80 L 850.30 567.30 L 848.80 565.10 L 846.90 563.20 L 844.70 561.70 L 842.20 560.50 L 839.60 559.80 L 836.70 559.50 Z" fill="#ffffff" fill-rule="nonzero" group-id="5" node-id="449" stroke="none" target-height="312.3" target-width="358.8" target-x="493.7" target-y="559.5"></path><g node-id="484"><path d="M 554.90 716.30 L 566.90 716.30 L 566.90 726.50 L 554.90 726.50 Z" fill="url(#SVGID_23_)" fill-rule="nonzero" group-id="5,8" node-id="453" stroke="none" target-height="10.200012" target-width="12" target-x="554.9" target-y="716.3"></path><path d="M 580.30 679.00 L 580.10 681.00 L 579.30 682.70 L 566.90 699.20 L 566.90 711.00 L 554.90 711.00 L 555.10 696.10 L 555.90 694.40 L 567.90 677.70 L 567.90 664.70 L 566.60 663.60 L 565.90 663.50 L 552.60 663.60 L 552.00 664.10 L 551.50 665.30 L 551.50 676.70 L 539.60 676.70 L 539.70 662.70 L 540.20 661.50 L 541.70 659.90 L 543.80 659.30 L 575.50 659.30 L 577.80 659.90 L 578.80 660.60 L 580.10 662.70 L 580.30 679.00 Z" fill="url(#SVGID_24_)" fill-rule="nonzero" group-id="5,8" node-id="455" stroke="none" target-height="51.700012" target-width="40.700012" target-x="539.6" target-y="659.3"></path><path d="M 601.60 716.30 L 613.60 716.30 L 613.60 726.50 L 601.60 726.50 Z" fill="url(#SVGID_25_)" fill-rule="nonzero" group-id="5,8" node-id="457" stroke="none" target-height="10.200012" target-width="12" target-x="601.6" target-y="716.3"></path><path d="M 626.90 679.00 L 626.70 681.00 L 625.90 682.70 L 613.50 699.20 L 613.50 711.00 L 601.50 711.00 L 601.70 696.10 L 602.50 694.40 L 614.50 677.70 L 614.50 664.70 L 613.20 663.60 L 612.50 663.50 L 599.20 663.60 L 598.60 664.10 L 598.10 665.30 L 598.10 676.70 L 586.20 676.70 L 586.30 662.70 L 586.80 661.50 L 588.30 659.90 L 590.40 659.30 L 622.10 659.30 L 624.40 659.90 L 625.40 660.60 L 626.70 662.70 L 626.90 679.00 Z" fill="url(#SVGID_26_)" fill-rule="nonzero" group-id="5,8" node-id="459" stroke="none" target-height="51.700012" target-width="40.700012" target-x="586.2" target-y="659.3"></path><path d="M 648.20 716.30 L 660.20 716.30 L 660.20 726.50 L 648.20 726.50 Z" fill="url(#SVGID_27_)" fill-rule="nonzero" group-id="5,8" node-id="461" stroke="none" target-height="10.200012" target-width="12" target-x="648.2" target-y="716.3"></path><path d="M 673.50 679.00 L 673.30 681.00 L 672.50 682.70 L 660.10 699.20 L 660.10 711.00 L 648.10 711.00 L 648.30 696.10 L 649.10 694.40 L 661.10 677.70 L 661.10 664.70 L 659.80 663.60 L 659.10 663.50 L 645.80 663.60 L 645.20 664.10 L 644.70 665.30 L 644.70 676.70 L 632.80 676.70 L 632.90 662.70 L 633.40 661.50 L 634.90 659.90 L 637.00 659.30 L 668.70 659.30 L 671.00 659.90 L 672.00 660.60 L 673.30 662.70 L 673.50 679.00 Z" fill="url(#SVGID_28_)" fill-rule="nonzero" group-id="5,8" node-id="463" stroke="none" target-height="51.700012" target-width="40.700012" target-x="632.8" target-y="659.3"></path><path d="M 694.80 716.30 L 706.80 716.30 L 706.80 726.50 L 694.80 726.50 Z" fill="url(#SVGID_29_)" fill-rule="nonzero" group-id="5,8" node-id="465" stroke="none" target-height="10.200012" target-width="12" target-x="694.8" target-y="716.3"></path><path d="M 720.20 679.00 L 720.00 681.00 L 719.20 682.70 L 706.80 699.20 L 706.80 711.00 L 694.80 711.00 L 694.80 698.30 L 695.00 696.10 L 695.80 694.40 L 707.90 677.70 L 707.90 664.70 L 706.60 663.60 L 705.90 663.50 L 692.60 663.60 L 692.00 664.10 L 691.50 665.30 L 691.50 676.70 L 679.60 676.70 L 679.60 664.10 L 680.20 661.50 L 681.70 659.90 L 683.80 659.30 L 715.50 659.30 L 717.80 659.90 L 719.60 661.60 L 720.10 662.70 L 720.30 679.00 Z" fill="url(#SVGID_30_)" fill-rule="nonzero" group-id="5,8" node-id="467" stroke="none" target-height="51.700012" target-width="40.700012" target-x="679.6" target-y="659.3"></path><path d="M 741.50 716.30 L 753.50 716.30 L 753.50 726.50 L 741.50 726.50 Z" fill="url(#SVGID_31_)" fill-rule="nonzero" group-id="5,8" node-id="469" stroke="none" target-height="10.200012" target-width="12" target-x="741.5" target-y="716.3"></path><path d="M 766.80 679.00 L 766.60 681.00 L 765.80 682.70 L 753.40 699.20 L 753.40 711.00 L 741.40 711.00 L 741.60 696.10 L 742.40 694.40 L 754.40 677.70 L 754.40 664.70 L 753.10 663.60 L 752.40 663.50 L 739.10 663.60 L 738.50 664.10 L 738.00 665.30 L 738.00 676.70 L 726.10 676.70 L 726.20 662.70 L 726.70 661.50 L 728.20 659.90 L 730.30 659.30 L 762.00 659.30 L 764.30 659.90 L 765.30 660.60 L 766.60 662.70 L 766.80 679.00 Z" fill="url(#SVGID_32_)" fill-rule="nonzero" group-id="5,8" node-id="471" stroke="none" target-height="51.700012" target-width="40.700012" target-x="726.1" target-y="659.3"></path><path d="M 788.10 716.30 L 800.10 716.30 L 800.10 726.50 L 788.10 726.50 Z" fill="url(#SVGID_33_)" fill-rule="nonzero" group-id="5,8" node-id="473" stroke="none" target-height="10.200012" target-width="12" target-x="788.1" target-y="716.3"></path><path d="M 813.50 679.00 L 813.30 681.00 L 812.50 682.70 L 800.10 699.20 L 800.10 711.00 L 788.10 711.00 L 788.30 696.10 L 789.10 694.40 L 801.10 677.70 L 801.10 664.70 L 799.80 663.60 L 799.10 663.50 L 785.80 663.60 L 785.20 664.10 L 784.70 665.30 L 784.70 676.70 L 772.80 676.70 L 772.90 662.70 L 773.40 661.50 L 774.90 659.90 L 777.00 659.30 L 808.70 659.30 L 811.00 659.90 L 812.00 660.60 L 812.80 661.60 L 813.30 662.70 L 813.50 679.00 Z" fill="url(#SVGID_34_)" fill-rule="nonzero" group-id="5,8" node-id="475" stroke="none" target-height="51.700012" target-width="40.700012" target-x="772.8" target-y="659.3"></path></g></g></svg>